REM DIRINDEX 1\2,1\3\7,1\3\8,1\4\9,1\4\10,1\4\11,1\5\12,1\5\13,1\5\14,1\6\15,1\6\16,1\6\17
REM DIRNAME "folder01","folder02","folder03","folder04","folder05","folder06","folder07","folder08","folder09","folder10","folder11","folder12","folder13","folder14","folder15","folder16","folder17"
TITLE ""
FILE "2Q_j_1477-1490.mp3" MP3
  TRACK 01 AUDIO
    TITLE "0:"
    INDEX 01 00:00:00
  TRACK 02 AUDIO
    TITLE "9:cjc174_0648"
    INDEX 01 00:00:10
  TRACK 03 AUDIO
    TITLE "0:"
    INDEX 01 00:01:53
  TRACK 04 AUDIO
    TITLE "10:cjc174_0649"
    INDEX 01 00:02:23
  TRACK 05 AUDIO
    TITLE "0:"
    INDEX 01 00:03:73
  TRACK 06 AUDIO
    TITLE "11:cjc174_0650"
    INDEX 01 00:04:41
  TRACK 07 AUDIO
    TITLE "0:"
    INDEX 01 00:09:01
  TRACK 08 AUDIO
    TITLE "9:cjc174_0651"
    INDEX 01 00:09:52
  TRACK 09 AUDIO
    TITLE "0:"
    INDEX 01 00:11:04
  TRACK 10 AUDIO
    TITLE "10:cjc174_0652"
    INDEX 01 00:11:49
  TRACK 11 AUDIO
    TITLE "0:"
    INDEX 01 00:14:24
  TRACK 12 AUDIO
    TITLE "11:cjc174_0653"
    INDEX 01 00:14:69
  TRACK 13 AUDIO
    TITLE "0:"
    INDEX 01 00:18:61
  TRACK 14 AUDIO
    TITLE "9:cjc174_0654"
    INDEX 01 00:19:31
  TRACK 15 AUDIO
    TITLE "0:"
    INDEX 01 00:21:20
  TRACK 16 AUDIO
    TITLE "10:cjc174_0655"
    INDEX 01 00:21:73
  TRACK 17 AUDIO
    TITLE "0:"
    INDEX 01 00:25:57
  TRACK 18 AUDIO
    TITLE "11:cjc174_0656"
    INDEX 01 00:26:25
  TRACK 19 AUDIO
    TITLE "0:"
    INDEX 01 00:30:35
  TRACK 20 AUDIO
    TITLE "9:cjc174_0657"
    INDEX 01 00:31:05
  TRACK 21 AUDIO
    TITLE "0:"
    INDEX 01 00:32:61
  TRACK 22 AUDIO
    TITLE "10:cjc174_0658"
    INDEX 01 00:33:31
  TRACK 23 AUDIO
    TITLE "0:"
    INDEX 01 00:35:22
  TRACK 24 AUDIO
    TITLE "11:cjc174_0659"
    INDEX 01 00:35:65
  TRACK 25 AUDIO
    TITLE "0:"
    INDEX 01 00:38:07
  TRACK 26 AUDIO
    TITLE "9:cjc174_0660"
    INDEX 01 00:38:56
  TRACK 27 AUDIO
    TITLE "0:"
    INDEX 01 00:40:02
  TRACK 28 AUDIO
    TITLE "10:cjc174_0661"
    INDEX 01 00:40:49
  TRACK 29 AUDIO
    TITLE "0:"
    INDEX 01 00:43:73
  TRACK 30 AUDIO
    TITLE "11:cjc174_0662"
    INDEX 01 00:44:43
  TRACK 31 AUDIO
    TITLE "0:"
    INDEX 01 00:48:52
  TRACK 32 AUDIO
    TITLE "9:cjc174_0663"
    INDEX 01 00:49:28
  TRACK 33 AUDIO
    TITLE "0:"
    INDEX 01 00:50:59
  TRACK 34 AUDIO
    TITLE "10:cjc174_0664"
    INDEX 01 00:51:29
  TRACK 35 AUDIO
    TITLE "0:"
    INDEX 01 00:53:50
  TRACK 36 AUDIO
    TITLE "11:cjc174_0665"
    INDEX 01 00:54:20
  TRACK 37 AUDIO
    TITLE "0:"
    INDEX 01 00:59:29
  TRACK 38 AUDIO
    TITLE "9:cjc174_0666"
    INDEX 01 00:59:74
  TRACK 39 AUDIO
    TITLE "0:"
    INDEX 01 01:01:63
  TRACK 40 AUDIO
    TITLE "10:cjc174_0667"
    INDEX 01 01:02:33
  TRACK 41 AUDIO
    TITLE "0:"
    INDEX 01 01:04:48
  TRACK 42 AUDIO
    TITLE "11:cjc174_0668"
    INDEX 01 01:05:22
  TRACK 43 AUDIO
    TITLE "0:"
    INDEX 01 01:10:19
  TRACK 44 AUDIO
    TITLE "9:cjc174_0669"
    INDEX 01 01:10:64
  TRACK 45 AUDIO
    TITLE "0:"
    INDEX 01 01:12:18
  TRACK 46 AUDIO
    TITLE "10:cjc174_0670"
    INDEX 01 01:12:72
  TRACK 47 AUDIO
    TITLE "0:"
    INDEX 01 01:14:71
  TRACK 48 AUDIO
    TITLE "11:cjc174_0671"
    INDEX 01 01:15:41
  TRACK 49 AUDIO
    TITLE "0:"
    INDEX 01 01:19:65
  TRACK 50 AUDIO
    TITLE "9:cjc174_0672"
    INDEX 01 01:20:35
  TRACK 51 AUDIO
    TITLE "0:"
    INDEX 01 01:23:08
  TRACK 52 AUDIO
    TITLE "10:cjc174_0673"
    INDEX 01 01:23:59
  TRACK 53 AUDIO
    TITLE "0:"
    INDEX 01 01:25:69
  TRACK 54 AUDIO
    TITLE "11:cjc174_0674"
    INDEX 01 01:26:37
  TRACK 55 AUDIO
    TITLE "0:"
    INDEX 01 01:31:74
  TRACK 56 AUDIO
    TITLE "9:cjc174_0675"
    INDEX 01 01:32:48
  TRACK 57 AUDIO
    TITLE "0:"
    INDEX 01 01:33:57
  TRACK 58 AUDIO
    TITLE "10:cjc174_0676"
    INDEX 01 01:34:29
  TRACK 59 AUDIO
    TITLE "0:"
    INDEX 01 01:36:01
  TRACK 60 AUDIO
    TITLE "11:cjc174_0677"
    INDEX 01 01:36:46
  TRACK 61 AUDIO
    TITLE "0:"
    INDEX 01 01:40:14
  TRACK 62 AUDIO
    TITLE "9:cjc174_0678"
    INDEX 01 01:40:61
  TRACK 63 AUDIO
    TITLE "0:"
    INDEX 01 01:41:74
  TRACK 64 AUDIO
    TITLE "10:cjc174_0679"
    INDEX 01 01:42:46
  TRACK 65 AUDIO
    TITLE "0:"
    INDEX 01 01:43:73
  TRACK 66 AUDIO
    TITLE "11:cjc174_0680"
    INDEX 01 01:44:43
  TRACK 67 AUDIO
    TITLE "0:"
    INDEX 01 01:49:34
  TRACK 68 AUDIO
    TITLE "9:cjc174_0681"
    INDEX 01 01:50:08
  TRACK 69 AUDIO
    TITLE "0:"
    INDEX 01 01:51:29
  TRACK 70 AUDIO
    TITLE "10:cjc174_0682"
    INDEX 01 01:52:01
  TRACK 71 AUDIO
    TITLE "0:"
    INDEX 01 01:53:03
  TRACK 72 AUDIO
    TITLE "11:cjc174_0683"
    INDEX 01 01:53:46
  TRACK 73 AUDIO
    TITLE "0:"
    INDEX 01 01:57:10
  TRACK 74 AUDIO
    TITLE "9:cjc174_0684"
    INDEX 01 01:57:58
  TRACK 75 AUDIO
    TITLE "0:"
    INDEX 01 01:59:11
  TRACK 76 AUDIO
    TITLE "10:cjc174_0685"
    INDEX 01 01:59:56
  TRACK 77 AUDIO
    TITLE "0:"
    INDEX 01 02:01:18
  TRACK 78 AUDIO
    TITLE "11:cjc174_0686"
    INDEX 01 02:01:63
  TRACK 79 AUDIO
    TITLE "0:"
    INDEX 01 02:04:26
  TRACK 80 AUDIO
    TITLE "9:cjc174_0687"
    INDEX 01 02:04:73
  TRACK 81 AUDIO
    TITLE "0:"
    INDEX 01 02:06:33
  TRACK 82 AUDIO
    TITLE "10:cjc174_0688"
    INDEX 01 02:07:03
  TRACK 83 AUDIO
    TITLE "0:"
    INDEX 01 02:09:31
  TRACK 84 AUDIO
    TITLE "11:cjc174_0689"
    INDEX 01 02:10:01
  TRACK 85 AUDIO
    TITLE "0:"
    INDEX 01 02:13:13
